<svg width="60" height="60" viewBox="0 0 60 60" fill="none"
                                      xmlns="http://www.w3.org/2000/svg">
<g clip-path="url(#clip0)">
<path d="M39.962 30.1853C40.0393 29.9983 39.9963 29.7832 39.853 29.6403L30.853 20.6403C30.6544 20.4484 30.3378 20.454 30.146 20.6526C29.9589 20.8464 29.9589 21.1535 30.146 21.3473L38.293 29.4943H16.5C16.2239 29.4943 16 29.7182 16 29.9943C16 30.2705 16.2239 30.4944 16.5 30.4944H38.293L30.147 38.6403C29.9484 38.8322 29.9429 39.1487 30.1347 39.3474C30.3266 39.546 30.6431 39.5515 30.8418 39.3596C30.8459 39.3556 30.85 39.3515 30.854 39.3474L39.854 30.3474C39.9003 30.3009 39.937 30.2459 39.962 30.1853Z"
      fill="#2196F3"/>
<path d="M30.4999 39.4944C30.2238 39.4949 29.9995 39.2714 29.999 38.9952C29.9988 38.8621 30.0517 38.7344 30.1459 38.6404L38.793 29.9944L30.1459 21.3484C29.9541 21.1498 29.9596 20.8332 30.1582 20.6414C30.352 20.4543 30.6592 20.4543 30.8529 20.6414L39.8529 29.6414C40.0481 29.8366 40.0481 30.1531 39.8529 30.3484L30.8529 39.3484C30.7592 39.4419 30.6323 39.4944 30.4999 39.4944Z"
      fill="#1CB867"/>
<path d="M39.5 30.4943H16.5C16.2239 30.4943 16 30.2705 16 29.9943C16 29.7182 16.2239 29.4943 16.5 29.4943H39.5C39.7762 29.4943 40 29.7182 40 29.9943C40 30.2705 39.7761 30.4943 39.5 30.4943Z"
      fill="#1CB867"/>
</g>
<circle cx="30" cy="30" r="29.5" stroke="#1CB867"/>
<defs>
<clipPath id="clip0">
<rect width="24" height="24" fill="white" transform="translate(16 18)"/>
</clipPath>
</defs>
</svg>