<svg width="60" height="60" viewBox="0 0 60 60" fill="none"
                                      xmlns="http://www.w3.org/2000/svg">
<g clip-path="url(#clip0)">
<path d="M16.038 30.1853C15.9607 29.9983 16.0037 29.7832 16.147 29.6403L25.147 20.6403C25.3456 20.4484 25.6622 20.454 25.854 20.6526C26.0411 20.8464 26.0411 21.1535 25.854 21.3473L17.707 29.4943H39.5C39.7761 29.4943 40 29.7182 40 29.9943C40 30.2705 39.7761 30.4944 39.5 30.4944H17.707L25.853 38.6403C26.0516 38.8322 26.0571 39.1487 25.8653 39.3474C25.6734 39.546 25.3569 39.5515 25.1582 39.3596C25.1541 39.3556 25.15 39.3515 25.146 39.3474L16.146 30.3474C16.0997 30.3009 16.063 30.2459 16.038 30.1853Z"
      fill="#2196F3"/>
<path d="M25.5001 39.4944C25.7762 39.4949 26.0005 39.2714 26.001 38.9952C26.0012 38.8621 25.9483 38.7344 25.8541 38.6404L17.207 29.9944L25.8541 21.3484C26.0459 21.1498 26.0404 20.8332 25.8418 20.6414C25.648 20.4543 25.3408 20.4543 25.1471 20.6414L16.1471 29.6414C15.9519 29.8366 15.9519 30.1531 16.1471 30.3484L25.1471 39.3484C25.2408 39.4419 25.3677 39.4944 25.5001 39.4944Z"
      fill="#1CB867"/>
<path d="M16.5 30.4943H39.5C39.7761 30.4943 40 30.2705 40 29.9943C40 29.7182 39.7761 29.4943 39.5 29.4943H16.5C16.2238 29.4943 16 29.7182 16 29.9943C16 30.2705 16.2239 30.4943 16.5 30.4943Z"
      fill="#1CB867"/>
</g>
<circle cx="30" cy="30" r="29.5" stroke="#1CB867"/>
<defs>
<clipPath id="clip0">
<rect width="24" height="24" fill="white" transform="matrix(-1 0 0 1 40 18)"/>
</clipPath>
</defs>
</svg>